<svg width="39" height="39" viewBox="0 0 39 39" fill="none" xmlns="http://www.w3.org/2000/svg">
<g id="Alert icon">
<circle id="Ellipse 7" cx="19.5" cy="19.5" r="19.1321" fill="black" stroke="#F5F5F5" stroke-width="0.735849"/>
<path id="Vector" d="M17.9936 13.1014C18.115 12.8314 18.3233 12.6001 18.5917 12.4373C18.86 12.2745 19.1763 12.1875 19.5 12.1875C19.8237 12.1875 20.14 12.2745 20.4083 12.4373C20.6767 12.6001 20.885 12.8314 21.0063 13.1014C22.2078 13.3987 23.2676 14.0428 24.0229 14.9347C24.7782 15.8265 25.1874 16.9169 25.1874 18.0383V21.4726L26.6759 23.4818C26.7575 23.592 26.8044 23.72 26.8115 23.8522C26.8187 23.9844 26.7858 24.1159 26.7164 24.2326C26.647 24.3493 26.5437 24.4469 26.4175 24.5149C26.2913 24.5829 26.147 24.6188 25.9999 24.6188H22.3153C22.2174 25.228 21.879 25.785 21.362 26.1879C20.8449 26.5907 20.1839 26.8125 19.5 26.8125C18.8161 26.8125 18.1551 26.5907 17.638 26.1879C17.121 25.785 16.7826 25.228 16.6847 24.6188H13.0001C12.853 24.6188 12.7087 24.5829 12.5825 24.5149C12.4563 24.4469 12.353 24.3493 12.2836 24.2326C12.2142 24.1159 12.1813 23.9844 12.1885 23.8522C12.1956 23.72 12.2425 23.592 12.3241 23.4818L13.8126 21.4726V18.0383C13.8126 15.681 15.5838 13.6951 17.9936 13.1014ZM18.3511 24.6188C18.4351 24.8328 18.5907 25.0181 18.7965 25.1491C19.0023 25.2802 19.2483 25.3506 19.5004 25.3506C19.7526 25.3506 19.9985 25.2802 20.2043 25.1491C20.4102 25.0181 20.5658 24.8328 20.6497 24.6188H18.3503H18.3511ZM19.5 14.3824C18.4226 14.3824 17.3893 14.7676 16.6274 15.4532C15.8656 16.1388 15.4376 17.0687 15.4376 18.0383V21.6941C15.4376 21.8386 15.3901 21.9798 15.3011 22.0999L14.5186 23.1565H24.4805L23.6981 22.0999C23.6094 21.9797 23.5622 21.8385 23.5624 21.6941V18.0383C23.5624 17.0687 23.1344 16.1388 22.3726 15.4532C21.6107 14.7676 20.5774 14.3824 19.5 14.3824Z" fill="#F5F5F5"/>
</g>
</svg>
