<svg width="39" height="39" viewBox="0 0 39 39" fill="none" xmlns="http://www.w3.org/2000/svg">
<g id="Profile Icon">
<circle id="Ellipse 8" cx="19.5" cy="19.5" r="19.1321" fill="black" stroke="#F5F5F5" stroke-width="0.735849"/>
<path id="Vector" d="M19.8679 12.0679C18.8271 12.0679 17.8288 12.44 17.0928 13.1024C16.3569 13.7648 15.9434 14.6632 15.9434 15.6C15.9434 16.5368 16.3569 17.4352 17.0928 18.0975C17.8288 18.7599 18.8271 19.1321 19.8679 19.1321C20.9088 19.1321 21.907 18.7599 22.643 18.0975C23.379 17.4352 23.7924 16.5368 23.7924 15.6C23.7924 14.6632 23.379 13.7648 22.643 13.1024C21.907 12.44 20.9088 12.0679 19.8679 12.0679ZM13.9811 15.6C13.9811 14.1948 14.6013 12.8473 15.7053 11.8537C16.8093 10.8601 18.3066 10.3019 19.8679 10.3019C21.4292 10.3019 22.9265 10.8601 24.0305 11.8537C25.1345 12.8473 25.7547 14.1948 25.7547 15.6C25.7547 17.0051 25.1345 18.3527 24.0305 19.3463C22.9265 20.3399 21.4292 20.8981 19.8679 20.8981C18.3066 20.8981 16.8093 20.3399 15.7053 19.3463C14.6013 18.3527 13.9811 17.0051 13.9811 15.6ZM15.9434 24.4302C15.1627 24.4302 14.4141 24.7093 13.8621 25.2061C13.3101 25.7029 13 26.3767 13 27.0792C13 27.3134 12.8966 27.538 12.7126 27.7036C12.5286 27.8692 12.2791 27.9623 12.0189 27.9623C11.7586 27.9623 11.5091 27.8692 11.3251 27.7036C11.1411 27.538 11.0377 27.3134 11.0377 27.0792C11.0377 25.9083 11.5546 24.7853 12.4746 23.9573C13.3945 23.1293 14.6423 22.6641 15.9434 22.6641H23.7924C25.0935 22.6641 26.3413 23.1293 27.2613 23.9573C28.1813 24.7853 28.6981 25.9083 28.6981 27.0792C28.6981 27.3134 28.5947 27.538 28.4107 27.7036C28.2267 27.8692 27.9772 27.9623 27.717 27.9623C27.4568 27.9623 27.2072 27.8692 27.0232 27.7036C26.8392 27.538 26.7358 27.3134 26.7358 27.0792C26.7358 26.3767 26.4257 25.7029 25.8737 25.2061C25.3217 24.7093 24.5731 24.4302 23.7924 24.4302H15.9434Z" fill="#F5F5F5"/>
</g>
</svg>
